<svg xmlns="http://www.w3.org/2000/svg" width="24" height="24" fill-rule="evenodd" stroke-linejoin="round" stroke-miterlimit="2" clip-rule="evenodd"><path d="m 17,13 c -0.552,0 -1,-0.448 -1,-1 0,-0.552 0.448,-1 1,-1 h 1 c 0.552,0 1,0.448 1,1 v 4 c 0,0.552 -0.448,1 -1,1 0,0 -1,0 -2,0 -1.657,0 -3,-1.343 -3,-3 0,-1.222 0,-2.778 0,-4 0,-1.657 1.343,-3 3,-3 h 2 c 0.552,0 1,0.448 1,1 0,0.552 -0.448,1 -1,1 h -2 c -0.552,0 -1,0.448 -1,1 0,1.222 0,2.778 0,4 0,0.552 0.448,1 1,1 h 1 z M 9,11 V 8 c 0,-0.552 0.448,-1 1,-1 0.552,0 1,0.448 1,1 v 8 c 0,0.552 -0.448,1 -1,1 C 9.448,17 9,16.552 9,16 V 13 H 6 C 5.448,13 5,12.552 5,12 V 8 C 5,7.448 5.448,7 6,7 6.552,7 7,7.448 7,8 v 3 z"/></svg>